<?xml version="1.0" encoding="iso-8859-1"?>
<!-- Generator: Adobe Illustrator 19.0.0, SVG Export Plug-In . SVG Version: 6.00 Build 0)  -->
<svg version="1.1" id="Layer_1" xmlns="http://www.w3.org/2000/svg" xmlns:xlink="http://www.w3.org/1999/xlink" x="0px" y="0px"
	 viewBox="0 0 496 496" style="enable-background:new 0 0 496 496;" xml:space="preserve">
<g>
	<g>
		<g>
			<path d="M496,0H0v384h230.776l-16,112h19.12l29.528-14.768L285.576,496h17.584l8.84-79.528L320.832,496h17.584l22.16-14.768
				L390.112,496h19.12l-16-112H496V0z M288.944,479.024l-24.368-16.256l-31.12,15.552l20.832-145.784
				c5.496,4.152,11.424,7.728,17.744,10.64l-11.016,71.608l15.816,2.432l10.544-68.536c5.104,1.36,10.336,2.376,15.736,2.872
				L288.944,479.024z M237.632,336H79.192C76.008,320.352,63.648,307.992,48,304.808V79.192C63.648,76.008,76.008,63.648,79.192,48
				H416.8c3.184,15.648,15.544,28.008,31.192,31.192V304.8c-15.648,3.184-28.008,15.544-31.192,31.192h-30.432l-2.384-16.688
				C398.88,302.384,408,280.264,408,256c0-52.936-43.064-96-96-96c-52.936,0-96,43.064-96,96c0,24.264,9.12,46.384,24.016,63.304
				L237.632,336z M312,336c-44.112,0-80-35.888-80-80s35.888-80,80-80s80,35.888,80,80S356.112,336,312,336z M359.424,462.768
				l-24.368,16.248l-14.168-127.472c5.4-0.496,10.632-1.512,15.736-2.872l10.544,68.536l15.816-2.432l-11.016-71.608
				c6.32-2.912,12.248-6.488,17.744-10.64l20.832,145.784L359.424,462.768z M480,368h-89.056l-2.288-16H432v-8
				c0-13.232,10.768-24,24-24h8V64h-8c-13.232,0-24-10.768-24-24v-8H64v8c0,13.232-10.768,24-24,24h-8v256h8
				c13.232,0,24,10.768,24,24v8h171.344l-2.288,16H16V16h464V368z"/>
			<path d="M312,192c-35.288,0-64,28.712-64,64c0,35.288,28.712,64,64,64c35.288,0,64-28.712,64-64C376,220.712,347.288,192,312,192
				z M312,304c-26.472,0-48-21.528-48-48s21.528-48,48-48s48,21.528,48,48S338.472,304,312,304z"/>
			
				<rect x="257.233" y="431.908" transform="matrix(-0.9884 -0.1519 0.1519 -0.9884 460.5506 915.1921)" width="16" height="16.192"/>
			
				<rect x="350.685" y="431.987" transform="matrix(-0.1519 -0.9884 0.9884 -0.1519 -21.6014 861.439)" width="16.192" height="16"/>
		</g>
	</g>
</g>
<g>
</g>
<g>
</g>
<g>
</g>
<g>
</g>
<g>
</g>
<g>
</g>
<g>
</g>
<g>
</g>
<g>
</g>
<g>
</g>
<g>
</g>
<g>
</g>
<g>
</g>
<g>
</g>
<g>
</g>
</svg>
